<svg width="297" height="49" viewBox="0 0 297 49" fill="none" xmlns="http://www.w3.org/2000/svg">
<path d="M153.483 48.928L140.619 36.128L144.907 31.84L157.707 44.64L153.483 48.928ZM136.587 48.96C131.979 48.96 128.054 47.9573 124.811 45.952C121.568 43.9253 119.083 41.1093 117.355 37.504C115.648 33.8987 114.795 29.7173 114.795 24.96C114.795 20.2027 115.648 16.0213 117.355 12.416C119.083 8.81066 121.568 6.00532 124.811 3.99999C128.054 1.97332 131.979 0.959991 136.587 0.959991C141.174 0.959991 145.088 1.97332 148.331 3.99999C151.595 6.00532 154.08 8.81066 155.787 12.416C157.494 16.0213 158.347 20.2027 158.347 24.96C158.347 29.7173 157.494 33.8987 155.787 37.504C154.08 41.1093 151.595 43.9253 148.331 45.952C145.088 47.9573 141.174 48.96 136.587 48.96ZM136.587 42.592C139.851 42.6347 142.56 41.92 144.715 40.448C146.891 38.9547 148.523 36.8853 149.611 34.24C150.699 31.5733 151.243 28.48 151.243 24.96C151.243 21.44 150.699 18.368 149.611 15.744C148.523 13.0987 146.891 11.04 144.715 9.56799C142.56 8.09599 139.851 7.34932 136.587 7.32799C133.323 7.28533 130.603 7.99999 128.427 9.47199C126.272 10.944 124.651 13.0133 123.563 15.68C122.475 18.3467 121.92 21.44 121.899 24.96C121.878 28.48 122.411 31.5627 123.499 34.208C124.587 36.832 126.219 38.88 128.395 40.352C130.592 41.824 133.323 42.5707 136.587 42.592Z" fill="white"/>
<path d="M177.754 48.928C175.365 48.928 173.359 48.544 171.738 47.776C170.117 47.008 168.794 46.0053 167.77 44.768C166.767 43.5093 165.999 42.144 165.466 40.672C164.933 39.2 164.57 37.76 164.378 36.352C164.186 34.944 164.09 33.7067 164.09 32.64V13.44H170.874V30.432C170.874 31.776 170.981 33.1627 171.194 34.592C171.429 36 171.855 37.312 172.474 38.528C173.114 39.744 173.999 40.7253 175.13 41.472C176.282 42.2187 177.775 42.592 179.61 42.592C180.805 42.592 181.935 42.4 183.002 42.016C184.069 41.6107 184.997 40.9707 185.786 40.096C186.597 39.2213 187.226 38.0693 187.674 36.64C188.143 35.2107 188.378 33.472 188.378 31.424L192.538 32.992C192.538 36.128 191.951 38.9013 190.778 41.312C189.605 43.7013 187.919 45.568 185.722 46.912C183.525 48.256 180.869 48.928 177.754 48.928ZM189.178 48V38.016H188.378V13.44H195.13V48H189.178Z" fill="white"/>
<path d="M219.433 48.96C215.998 48.96 212.98 48.2133 210.377 46.72C207.796 45.2053 205.78 43.104 204.329 40.416C202.9 37.7067 202.185 34.5707 202.185 31.008C202.185 27.232 202.889 23.9573 204.297 21.184C205.726 18.4107 207.71 16.2667 210.249 14.752C212.788 13.2373 215.742 12.48 219.113 12.48C222.633 12.48 225.63 13.3013 228.105 14.944C230.58 16.5653 232.425 18.88 233.641 21.888C234.878 24.896 235.369 28.4693 235.113 32.608H228.425V30.176C228.382 26.1653 227.614 23.2 226.121 21.28C224.649 19.36 222.398 18.4 219.369 18.4C216.02 18.4 213.502 19.456 211.817 21.568C210.132 23.68 209.289 26.7307 209.289 30.72C209.289 34.5173 210.132 37.4613 211.817 39.552C213.502 41.6213 215.934 42.656 219.113 42.656C221.204 42.656 223.006 42.1867 224.521 41.248C226.057 40.288 227.252 38.9227 228.105 37.152L234.665 39.232C233.321 42.3253 231.284 44.7253 228.553 46.432C225.822 48.1173 222.782 48.96 219.433 48.96ZM207.113 32.608V27.392H231.785V32.608H207.113Z" fill="white"/>
<path d="M255.508 48.928C251.306 48.928 247.882 48 245.236 46.144C242.591 44.288 240.97 41.6747 240.372 38.304L247.22 37.248C247.647 39.04 248.628 40.4587 250.164 41.504C251.722 42.528 253.652 43.04 255.956 43.04C258.047 43.04 259.679 42.6133 260.852 41.76C262.047 40.9067 262.644 39.7333 262.644 38.24C262.644 37.3653 262.431 36.6613 262.005 36.128C261.599 35.5733 260.735 35.0507 259.412 34.56C258.09 34.0693 256.074 33.4613 253.364 32.736C250.399 31.968 248.042 31.1467 246.292 30.272C244.564 29.376 243.327 28.3413 242.58 27.168C241.855 25.9733 241.492 24.5333 241.492 22.848C241.492 20.7573 242.047 18.9333 243.156 17.376C244.266 15.8187 245.823 14.6133 247.828 13.76C249.855 12.9067 252.223 12.48 254.932 12.48C257.578 12.48 259.935 12.896 262.005 13.728C264.074 14.56 265.748 15.744 267.028 17.28C268.308 18.7947 269.076 20.576 269.332 22.624L262.484 23.872C262.25 22.208 261.471 20.896 260.148 19.936C258.826 18.976 257.108 18.4533 254.996 18.368C252.97 18.2827 251.327 18.624 250.068 19.392C248.81 20.1387 248.18 21.1733 248.18 22.496C248.18 23.264 248.415 23.9147 248.884 24.448C249.375 24.9813 250.314 25.4933 251.7 25.984C253.087 26.4747 255.135 27.0613 257.844 27.744C260.746 28.4907 263.05 29.3227 264.756 30.24C266.463 31.136 267.679 32.2133 268.404 33.472C269.151 34.7093 269.524 36.2133 269.524 37.984C269.524 41.3973 268.276 44.0747 265.78 46.016C263.306 47.9573 259.882 48.928 255.508 48.928Z" fill="white"/>
<path d="M296.381 48C294.205 48.4267 292.072 48.608 289.981 48.544C287.89 48.48 286.024 48.0747 284.381 47.328C282.738 46.5813 281.501 45.408 280.669 43.808C279.922 42.3787 279.517 40.928 279.453 39.456C279.41 37.9627 279.389 36.2773 279.389 34.4V3.83999H286.109V34.08C286.109 35.4667 286.12 36.672 286.141 37.696C286.184 38.72 286.408 39.584 286.813 40.288C287.581 41.6107 288.797 42.368 290.461 42.56C292.146 42.7307 294.12 42.656 296.381 42.336V48ZM272.765 18.816V13.44H296.381V18.816H272.765Z" fill="white"/>
<path d="M14.144 48.96C10.4747 48.96 7.44533 48.0213 5.056 46.144C2.688 44.2667 1.00267 41.728 0 38.528L8.576 36.48C8.768 37.6533 9.38667 38.6773 10.432 39.552C11.4773 40.4053 12.5867 40.832 13.76 40.832C14.5707 40.832 15.4347 40.608 16.352 40.16C17.2907 39.712 17.9627 38.9973 18.368 38.016C18.624 37.3973 18.7733 36.64 18.816 35.744C18.8587 34.848 18.88 33.8133 18.88 32.64V1.91998H27.712V32.64C27.712 34.112 27.7013 35.392 27.68 36.48C27.68 37.568 27.5733 38.592 27.36 39.552C27.168 40.4907 26.7733 41.472 26.176 42.496C24.8747 44.7573 23.1787 46.4 21.088 47.424C18.9973 48.448 16.6827 48.96 14.144 48.96Z" fill="#20DFAD"/>
<path d="M52.8445 48.96C49.3672 48.96 46.3165 48.1813 43.6925 46.624C41.0685 45.0667 39.0205 42.9227 37.5485 40.192C36.0978 37.44 35.3725 34.2827 35.3725 30.72C35.3725 27.1147 36.1192 23.9467 37.6125 21.216C39.1058 18.464 41.1645 16.32 43.7885 14.784C46.4125 13.248 49.4312 12.48 52.8445 12.48C56.3218 12.48 59.3725 13.2587 61.9965 14.816C64.6418 16.3733 66.7005 18.528 68.1725 21.28C69.6445 24.0107 70.3805 27.1573 70.3805 30.72C70.3805 34.304 69.6338 37.472 68.1405 40.224C66.6685 42.9547 64.6098 45.0986 61.9645 46.656C59.3405 48.192 56.3005 48.96 52.8445 48.96ZM52.8445 40.832C55.6392 40.832 57.7192 39.8933 59.0845 38.016C60.4712 36.1173 61.1645 33.6853 61.1645 30.72C61.1645 27.648 60.4605 25.1947 59.0525 23.36C57.6658 21.5253 55.5965 20.608 52.8445 20.608C50.9458 20.608 49.3885 21.0346 48.1725 21.888C46.9565 22.7413 46.0498 23.9253 45.4525 25.44C44.8765 26.9547 44.5885 28.7147 44.5885 30.72C44.5885 33.8133 45.2818 36.2773 46.6685 38.112C48.0765 39.9253 50.1352 40.832 52.8445 40.832Z" fill="#20DFAD"/>
<path d="M94.3775 48.96C90.9428 48.96 88.0735 48.16 85.7695 46.56C83.4655 44.96 81.7268 42.784 80.5535 40.032C79.4015 37.28 78.8255 34.176 78.8255 30.72C78.8255 27.264 79.4015 24.16 80.5535 21.408C81.7055 18.656 83.4015 16.48 85.6415 14.88C87.8815 13.28 90.6442 12.48 93.9295 12.48C97.2362 12.48 100.116 13.2693 102.57 14.848C105.023 16.4266 106.922 18.592 108.266 21.344C109.631 24.0746 110.314 27.2 110.314 30.72C110.314 34.176 109.642 37.28 108.298 40.032C106.975 42.784 105.119 44.96 102.729 46.56C100.34 48.16 97.5562 48.96 94.3775 48.96ZM77.3535 48V1.91998H86.1215V24.32H85.0335V48H77.3535ZM92.9695 41.216C94.8468 41.216 96.3828 40.7467 97.5775 39.808C98.7722 38.8693 99.6575 37.6106 100.234 36.032C100.81 34.432 101.098 32.6613 101.098 30.72C101.098 28.8 100.799 27.0506 100.201 25.472C99.6042 23.872 98.6762 22.6027 97.4175 21.664C96.1802 20.704 94.5908 20.224 92.6495 20.224C90.8362 20.224 89.3642 20.6613 88.2335 21.536C87.1242 22.4107 86.3135 23.6373 85.8015 25.216C85.2895 26.7947 85.0335 28.6293 85.0335 30.72C85.0335 32.8107 85.2895 34.6453 85.8015 36.224C86.3135 37.8027 87.1455 39.0293 88.2975 39.904C89.4708 40.7787 91.0282 41.216 92.9695 41.216Z" fill="#20DFAD"/>
</svg>
